<svg width="230" height="280" style="display: block;" version="1.1" xmlns="http://www.w3.org/2000/svg" xmlns:xlink="http://www.w3.org/1999/xlink"><g transform="matrix(1 0 0 -1 -35 300)"><g><path d="M 100 200 L 120 150 L 180 150 L 200 200 Z M 150 185 L 165 160 L 135 160 Z" stroke="blue" fill="orange" stroke-width="3"></path><g transform="matrix(1 0 0 -1 0 440)"><path d="M 100 200 L 120 150 L 180 150 L 200 200 Z M 150 185 L 165 160 L 135 160 Z" stroke="blue" fill="orange" stroke-width="3"></path></g><g transform="matrix(0.9396926207859084 -0.34202014332566866 -0.34202014332566866 -0.9396926207859082 51.3030214988503 290.9538931178862)"><path d="M 100 200 L 120 150 L 180 150 L 200 200 Z M 150 185 L 165 160 L 135 160 Z" stroke="blue" fill="orange" stroke-width="3"></path></g><g stroke-width="0.5" stroke="black" stroke-dasharray="3 3"><polyline points="50,220 250,220"></polyline><polyline points="49.2403876506104,141.3175911166535 246.201938253052,106.58795558326742"></polyline></g></g></g></svg>
