<svg width="225" height="180" style="display: block;" version="1.1" xmlns="http://www.w3.org/2000/svg" xmlns:xlink="http://www.w3.org/1999/xlink"><g transform="matrix(1 0 0 -1 -10 190)"><g><g transform="matrix(1 0 0 1 25 25)"><path d="M 0 0 L 40 0 L 50 25 L 10 25 Z" fill="orange" stroke="blue" stroke-width="2"></path></g><g transform="matrix(1 0 0 1 100 25)"><path d="M 0 0 L 40 0 L 50 25 L 10 25 Z" fill="orange" stroke="blue" stroke-width="2"></path></g><g transform="matrix(0.9396926207859084 0.3420201433256687 -0.3420201433256687 0.9396926207859084 175 25)"><path d="M 0 0 L 40 0 L 50 25 L 10 25 Z" fill="orange" stroke="blue" stroke-width="2"></path></g><g transform="matrix(1 0 0 1 25 150)"><path d="M 0 0 L 40 0 L 50 25 L 10 25 Z" fill="orange" stroke="blue" stroke-width="2"></path></g><g transform="matrix(0.9396926207859084 0.3420201433256687 -0.3420201433256687 0.9396926207859084 100 100)"><path d="M 0 0 L 40 0 L 50 25 L 10 25 Z" fill="orange" stroke="blue" stroke-width="2"></path></g><g transform="matrix(0.8660254037844387 -0.49999999999999994 0.49999999999999994 0.8660254037844387 150 150)"><path d="M 0 0 L 40 0 L 50 25 L 10 25 Z" fill="orange" stroke="blue" stroke-width="2"></path></g></g></g></svg>
