<svg width="140" height="140" style="display: block;" version="1.1" xmlns="http://www.w3.org/2000/svg" xmlns:xlink="http://www.w3.org/1999/xlink"><g transform="matrix(1 0 0 -1 -130 220)"><g><circle cx="200" cy="150" r="3" fill="black"></circle><g transform="rotate(0 200 150)"><circle cx="150" cy="150" r="10" fill="orange" stroke="blue" stroke-width="2"></circle></g><g transform="rotate(29.999999999999996 200 150)"><circle cx="150" cy="150" r="10" fill="orange" stroke="blue" stroke-width="2"></circle></g><g transform="rotate(59.99999999999999 200 150)"><circle cx="150" cy="150" r="10" fill="orange" stroke="blue" stroke-width="2"></circle></g><g transform="rotate(90 200 150)"><circle cx="150" cy="150" r="10" fill="orange" stroke="blue" stroke-width="2"></circle></g><g transform="rotate(119.99999999999999 200 150)"><circle cx="150" cy="150" r="10" fill="orange" stroke="blue" stroke-width="2"></circle></g><g transform="rotate(149.99999999999997 200 150)"><circle cx="150" cy="150" r="10" fill="orange" stroke="blue" stroke-width="2"></circle></g><g transform="rotate(180 200 150)"><circle cx="150" cy="150" r="10" fill="orange" stroke="blue" stroke-width="2"></circle></g><g transform="rotate(210 200 150)"><circle cx="150" cy="150" r="10" fill="orange" stroke="blue" stroke-width="2"></circle></g><g transform="rotate(239.99999999999997 200 150)"><circle cx="150" cy="150" r="10" fill="orange" stroke="blue" stroke-width="2"></circle></g><g transform="rotate(270 200 150)"><circle cx="150" cy="150" r="10" fill="orange" stroke="blue" stroke-width="2"></circle></g></g></g></svg>
